<?xml version="1.0" encoding="utf-8"?>
<!-- Generator: Adobe Illustrator 14.0.0, SVG Export Plug-In . SVG Version: 6.00 Build 43363)  -->
<!DOCTYPE svg PUBLIC "-//W3C//DTD SVG 1.1//EN" "http://www.w3.org/Graphics/SVG/1.1/DTD/svg11.dtd">
<svg version="1.1" id="Layer_1" xmlns="http://www.w3.org/2000/svg" xmlns:xlink="http://www.w3.org/1999/xlink" x="0px" y="0px"
	 width="566.929px" height="292px" viewBox="0 0 566.929 292" enable-background="new 0 0 566.929 292" xml:space="preserve">
<g>
	<g>
		<g>
			<path fill="#77787B" d="M222.814,216.564h-4.875l-3.182-7.671h-14.775l-3.145,7.671h-4.66l12.945-30.42h4.526L222.814,216.564z
				 M207.302,189.892l-5.881,15.472h11.852L207.302,189.892z"/>
			<path fill="#77787B" d="M230.342,198.214c1.746-2.703,4.442-4.272,7.761-4.272c5.749,0,9.589,4.491,9.589,11.245
				c0,7.019-3.884,11.685-9.678,11.685c-3.359,0-5.711-1.221-7.495-4.01c0.045,1.305,0.089,2.61,0.089,3.92v8.938h-4.099v-23.365
				c0-2.7-0.134-5.315-0.26-8.021h3.878L230.342,198.214z M230.605,205.49c0,4.446,2.871,7.891,6.533,7.891
				c3.573,0,6.188-3.354,6.188-7.932c0-4.838-2.396-7.976-6.104-7.976C233.478,197.474,230.605,200.873,230.605,205.49z"/>
			<path fill="#77787B" d="M274.782,216.564v-18.611h-0.178l-6.444,18.611h-4.668l-6.44-18.611h-0.182v18.611h-4.01v-22.23h6.666
				l6.237,18.396h0.044l6.318-18.396h6.666v22.23H274.782z"/>
			<path fill="#77787B" d="M293.99,193.941c4.402,0,8.191,1.922,8.719,6.498c0.135,1.219,0.172,2.049,0.172,4.614v3.886
				c0,2.521,0,5.663,0.223,7.625h-3.709c-0.088-0.914-0.088-1.263-0.088-2.007c0-0.521,0-0.914,0.045-1.83
				c-1.695,2.878-4.047,4.144-7.451,4.144c-4.75,0-7.799-2.619-7.799-6.67c0-4.709,4.225-7.32,11.676-7.32
				c1.051,0,2.271,0.092,3.137,0.133c-0.033-3.885-1.869-5.662-5.574-5.662c-2.611,0-4.572,0.734-6.533,2.22l-0.224-3.617
				C289.152,194.556,290.936,193.941,293.99,193.941z M296.734,205.927c-5.441,0-8.23,1.398-8.23,4.229
				c0,2.049,1.736,3.487,4.313,3.487c2.441,0,4.572-1.221,5.535-3.271c0.479-1.086,0.604-1.916,0.65-4.354
				C298.048,205.927,297.689,205.927,296.734,205.927z"/>
			<path fill="#77787B" d="M306.398,197.648v-3.314h18.658v3.314h-7.279v18.916h-4.1v-18.916H306.398z"/>
			<path fill="#77787B" d="M337.902,218.216c-1.479,4.144-3.4,7.808-8.365,7.808c-0.918,0-1.443-0.046-2.574-0.396l0.223-3.313
				c0.873,0.262,1.268,0.303,1.959,0.303c3.006,0,3.967-2.31,5.011-5.144l-8.536-23.146h4.443l6.145,18.611l6.229-18.611h4.057
				L337.902,218.216z"/>
			<path fill="#77787B" d="M354.103,198.214c1.74-2.703,4.447-4.272,7.754-4.272c5.76,0,9.592,4.491,9.592,11.245
				c0,7.019-3.879,11.685-9.672,11.685c-3.355,0-5.713-1.221-7.502-4.01c0.043,1.305,0.092,2.61,0.092,3.92v8.938h-4.102v-23.365
				c0-2.7-0.127-5.315-0.26-8.021h3.877L354.103,198.214z M354.366,205.49c0,4.446,2.879,7.891,6.537,7.891
				c3.572,0,6.188-3.354,6.188-7.932c0-4.838-2.398-7.976-6.104-7.976C357.245,197.474,354.366,200.873,354.366,205.49z"/>
			<path fill="#77787B" d="M385.085,193.941c4.398,0,8.188,1.922,8.717,6.498c0.133,1.219,0.17,2.049,0.17,4.614v3.886
				c0,2.521,0,5.663,0.221,7.625h-3.703c-0.092-0.914-0.092-1.263-0.092-2.007c0-0.521,0-0.914,0.045-1.83
				c-1.691,2.878-4.047,4.144-7.447,4.144c-4.75,0-7.8-2.619-7.8-6.67c0-4.709,4.228-7.32,11.677-7.32
				c1.051,0,2.271,0.092,3.139,0.133c-0.039-3.885-1.873-5.662-5.58-5.662c-2.61,0-4.572,0.734-6.533,2.22l-0.221-3.617
				C380.247,194.556,382.027,193.941,385.085,193.941z M387.831,205.927c-5.445,0-8.236,1.398-8.236,4.229
				c0,2.049,1.74,3.487,4.314,3.487c2.438,0,4.568-1.221,5.529-3.271c0.482-1.086,0.607-1.916,0.652-4.354
				C389.14,205.927,388.784,205.927,387.831,205.927z"/>
			<path fill="#77787B" d="M444.978,203.271v2.921h-35.941v-2.921"/>
			<path fill="#77787B" d="M214.232,265.808h-4.099v-18.914h-7.719v6.496c0,5.705-0.52,12.812-7.06,12.812
				c-0.829,0-1.827-0.129-2.611-0.349l0.263-3.577c0.303,0.135,1.354,0.309,2.138,0.309c2.745,0,3.271-2.92,3.271-12.553v-6.451
				h15.817V265.808L214.232,265.808z"/>
			<path fill="#77787B" d="M230.394,267.46c-1.479,4.145-3.403,7.807-8.368,7.807c-0.917,0-1.44-0.043-2.575-0.393l0.226-3.314
				c0.873,0.265,1.265,0.306,1.961,0.306c3.003,0,3.965-2.31,5.009-5.144l-8.538-23.145h4.446l6.141,18.611l6.229-18.611h4.055
				L230.394,267.46z"/>
			<path fill="#77787B" d="M249.297,257.441c-4.887,0-7.45-2.271-7.45-7.365v-6.496h4.091v5.668c0,2.877,0.525,4.793,4.188,4.793
				c2.176,0,4.658-0.563,5.749-0.873v-9.588h4.1v22.229h-4.1v-9.325C254.657,256.785,252.175,257.441,249.297,257.441z"/>
			<path fill="#77787B" d="M266.721,243.578h4.092v18.918h9.33v-18.918h4.099v18.918h9.324v-18.918h4.098v22.229h-30.938
				L266.721,243.578L266.721,243.578z"/>
			<path fill="#77787B" d="M324.534,243.578v22.229h-4.102v-16.78h-0.125l-11.158,16.78h-4.75v-22.229h4.092v16.736h0.137
				l11.158-16.736H324.534z"/>
			<path fill="#77787B" d="M341.3,262.89c2.486,0,4.928-0.828,7.021-2.096v3.924c-2.094,1.176-4.75,1.611-7.104,1.611
				c-6.979,0-11.424-4.617-11.424-11.809c0-6.938,4.188-11.505,10.506-11.505c6.143,0,9.715,4.396,9.715,11.938v0.783h-16.031
				C334.286,259.707,336.64,262.89,341.3,262.89z M345.88,252.562c-0.303-3.137-1.701-6.407-5.711-6.407
				c-3.229,0-5.623,2.481-6.146,6.407H345.88z"/>
			<path fill="#77787B" d="M371.058,247.458c1.738-2.703,4.447-4.271,7.754-4.271c5.756,0,9.59,4.49,9.59,11.246
				c0,7.019-3.879,11.683-9.672,11.683c-3.354,0-5.711-1.222-7.502-4.01c0.045,1.307,0.088,2.612,0.088,3.922v8.934h-4.098v-23.356
				c0-2.699-0.125-5.314-0.26-8.021h3.877L371.058,247.458z M371.312,254.736c0,4.446,2.879,7.891,6.541,7.891
				c3.574,0,6.188-3.354,6.188-7.93c0-4.84-2.396-7.978-6.104-7.978C374.191,246.72,371.312,250.119,371.312,254.736z"/>
			<path fill="#77787B" d="M403.597,262.89c2.486,0,4.928-0.828,7.021-2.096v3.924c-2.098,1.176-4.75,1.611-7.104,1.611
				c-6.977,0-11.424-4.617-11.424-11.809c0-6.938,4.188-11.505,10.506-11.505c6.141,0,9.715,4.396,9.715,11.938v0.783h-16.033
				C396.583,259.707,398.935,262.89,403.597,262.89z M408.177,252.562c-0.303-3.137-1.701-6.407-5.711-6.407
				c-3.227,0-5.623,2.481-6.143,6.407H408.177z"/>
			<path fill="#77787B" d="M417.581,243.578h4.09v18.918h9.33v-18.918h4.1v18.918h9.322v-18.918h4.1v22.229h-30.938L417.581,243.578
				L417.581,243.578z"/>
			<path fill="#77787B" d="M465.286,262.89c2.482,0,4.922-0.828,7.014-2.096v3.924c-2.092,1.176-4.748,1.611-7.104,1.611
				c-6.969,0-11.416-4.617-11.416-11.809c0-6.938,4.184-11.505,10.498-11.505c6.148,0,9.727,4.396,9.727,11.938v0.783h-16.041
				C458.265,259.707,460.626,262.89,465.286,262.89z M469.855,252.562c-0.303-3.137-1.689-6.407-5.703-6.407
				c-3.227,0-5.623,2.481-6.146,6.407H469.855z"/>
			<path fill="#77787B" d="M494.818,243.578h4.104v22.229h-4.104v-10.021h-11.459v10.021h-4.1v-22.229h4.1v8.895h11.459V243.578
				L494.818,243.578z"/>
			<path fill="#77787B" d="M525.794,243.578v22.229H521.7v-16.78h-0.137l-11.152,16.78h-4.75v-22.229h4.1v16.736h0.125
				l11.156-16.736H525.794z"/>
			<path fill="#77787B" d="M545.566,265.808v-8.721h-2.743c-2.095,0-3.271,0.09-4.659,2.705l-3.186,6.016h-4.883l3.877-6.975
				c1.051-1.869,2.354-2.744,3.314-3.006v-0.041c-1.961-0.267-5.357-2.139-5.357-5.537c0-4.053,2.871-6.672,7.273-6.672h10.461
				v22.229L545.566,265.808L545.566,265.808z M545.566,246.849h-5.441c-2.098,0-3.797,1.177-3.797,3.4
				c0,2.396,2.313,3.572,4.188,3.572h5.053L545.566,246.849L545.566,246.849z"/>
			<path fill="#77787B" d="M563.519,257.396h-3.752l-0.74-22.008h5.021L563.519,257.396z M563.999,265.808h-4.75v-4.664h4.75
				V265.808z"/>
		</g>
	</g>
	<g>
		<g>
			<path fill="#008541" d="M236.073,82.363c-23.72,0-42.953,19.229-42.953,42.949s19.233,42.949,42.953,42.949h48.321V141.42
				h-45.095h-0.004c-8.9,0-16.11-7.216-16.11-16.104c0-8.9,7.21-16.103,16.106-16.103h0.008h45.095V82.362L236.073,82.363
				L236.073,82.363z"/>
			<polygon fill="#008541" points="167.001,82.363 134.785,128.361 102.572,82.363 69.799,82.363 118.397,151.77 73.017,216.58 
				105.792,216.58 199.771,82.363 			"/>
			<path fill="#008541" d="M523.974,82.363h-99.336l18.813,26.852h16.1V216.58h26.85v-48.314h37.576
				c23.719,0,42.955-19.229,42.955-42.949C566.929,101.591,547.689,82.363,523.974,82.363z M520.755,141.42h-0.008h-34.354v-32.206
				h34.354l0,0c8.904,0,16.104,7.197,16.104,16.103C536.853,134.205,529.652,141.42,520.755,141.42z"/>
			<path fill="#008541" d="M341.3,109.214h0.008h33.367l41.357,59.047h32.77L369.851,55.514h-32.771l18.801,26.85h-17.794
				c-23.725,0-42.949,19.229-42.949,42.949s19.229,42.949,42.949,42.949h48.316V141.42h-45.096l0,0
				c-8.896,0-16.113-7.216-16.113-16.104C325.191,116.412,332.404,109.214,341.3,109.214z"/>
		</g>
		<polygon fill="#008541" points="69.799,82.355 88.592,55.514 0,55.514 0,168.261 26.85,168.261 26.85,82.355 		"/>
	</g>
</g>
</svg>
