<svg width="328" height="195" viewBox="0 0 328 195" fill="none" xmlns="http://www.w3.org/2000/svg">
<path d="M41.4223 176.139L40.8456 190.969H35.5728V181H32.6069V176.139H41.4223ZM5.58421 181V138.818H10.445V176.304H32.195V138.818H37.0558V181H5.58421ZM76.9808 181V138.818H82.0888V157.602H104.58V138.818H109.688V181H104.58V162.134H82.0888V181H76.9808ZM147.754 138.818H152.78V172.02H153.192L176.26 138.818H181.203V181H176.095V147.881H175.683L152.698 181H147.754V138.818ZM250.818 138.818V181H245.71V143.349H224.455V181H219.347V138.818H250.818ZM288.962 138.818H293.987V172.02H294.399L317.467 138.818H322.411V181H317.303V147.881H316.891L293.905 181H288.962V138.818Z" fill="white"/>
<path d="M54.098 60H47.0526C46.6359 57.9735 45.9067 56.1932 44.8651 54.6591C43.8423 53.125 42.5923 51.8371 41.1151 50.7955C39.6567 49.7348 38.0374 48.9394 36.2571 48.4091C34.4768 47.8788 32.6207 47.6136 30.6889 47.6136C27.1662 47.6136 23.9749 48.5038 21.1151 50.2841C18.2741 52.0644 16.0109 54.6875 14.3253 58.1534C12.6586 61.6193 11.8253 65.8712 11.8253 70.9091C11.8253 75.947 12.6586 80.1989 14.3253 83.6648C16.0109 87.1307 18.2741 89.7538 21.1151 91.5341C23.9749 93.3144 27.1662 94.2045 30.6889 94.2045C32.6207 94.2045 34.4768 93.9394 36.2571 93.4091C38.0374 92.8788 39.6567 92.0928 41.1151 91.0511C42.5923 89.9905 43.8423 88.6932 44.8651 87.1591C45.9067 85.6061 46.6359 83.8258 47.0526 81.8182H54.098C53.5677 84.7917 52.6018 87.4527 51.2003 89.8011C49.7988 92.1496 48.0563 94.1477 45.973 95.7955C43.8897 97.4242 41.5507 98.6648 38.956 99.517C36.3802 100.369 33.6245 100.795 30.6889 100.795C25.7268 100.795 21.3139 99.5833 17.4503 97.1591C13.5866 94.7348 10.5469 91.2879 8.33097 86.8182C6.11506 82.3485 5.0071 77.0455 5.0071 70.9091C5.0071 64.7727 6.11506 59.4697 8.33097 55C10.5469 50.5303 13.5866 47.0833 17.4503 44.6591C21.3139 42.2348 25.7268 41.0227 30.6889 41.0227C33.6245 41.0227 36.3802 41.4489 38.956 42.3011C41.5507 43.1534 43.8897 44.4034 45.973 46.0511C48.0563 47.6799 49.7988 49.6686 51.2003 52.017C52.6018 54.3466 53.5677 57.0076 54.098 60ZM62.3011 48.0682V41.8182H105.938V48.0682H87.642V100H80.5966V48.0682H62.3011ZM229.311 100V41.8182H248.97C253.535 41.8182 257.266 42.642 260.163 44.2898C263.08 45.9186 265.239 48.125 266.641 50.9091C268.042 53.6932 268.743 56.7992 268.743 60.2273C268.743 63.6553 268.042 66.7708 266.641 69.5739C265.258 72.3769 263.118 74.6117 260.22 76.2784C257.322 77.9261 253.61 78.75 249.084 78.75H234.993V72.5H248.857C251.982 72.5 254.491 71.9602 256.385 70.8807C258.279 69.8011 259.652 68.3428 260.504 66.5057C261.375 64.6496 261.811 62.5568 261.811 60.2273C261.811 57.8977 261.375 55.8144 260.504 53.9773C259.652 52.1402 258.269 50.7008 256.357 49.6591C254.444 48.5985 251.906 48.0682 248.743 48.0682H236.357V100H229.311ZM314.297 100L294.297 73.2955H287.138V100H280.092V41.8182H287.138V67.0455H290.206L313.501 41.8182H321.911L298.388 67.3864L322.706 100H314.297Z" fill="white"/>
<path d="M179.304 36H146.7C145.923 36 145.443 36.8481 145.843 37.5146L162.143 64.6716C162.531 65.3188 163.469 65.3188 163.857 64.6717L180.161 37.5147C180.561 36.8482 180.081 36 179.304 36Z" fill="#E20338"/>
<path d="M103.91 98.4849L140.002 38.4271C140.391 37.7803 141.329 37.7806 141.717 38.4275L158.56 66.4853C158.96 67.1518 158.48 68 157.703 68H143H143C142.996 68 141 68.0013 141 70C141 72.0008 143 72.0008 143 72.0008H157.703C158.48 72.0008 158.961 72.8488 158.561 73.5153L142.959 99.5145C142.779 99.8157 142.453 100 142.102 100H104.768C103.99 100 103.51 99.1514 103.91 98.4849Z" fill="#008736"/>
<path d="M148.243 98.4853L162.143 75.3284C162.531 74.6812 163.469 74.6812 163.857 75.3283L177.758 98.4853C178.159 99.1518 177.678 100 176.901 100H149.1C148.323 100 147.843 99.1519 148.243 98.4853Z" fill="#0351C1"/>
<path d="M144.758 30.4851L162.212 1.42892C162.6 0.781732 163.539 0.78227 163.927 1.4299L181.335 30.4861C181.734 31.1526 181.254 32 180.477 32H145.615C144.837 32 144.357 31.1516 144.758 30.4851Z" fill="#008736"/>
<path d="M221.234 100H183.916C183.565 100 183.239 99.8157 183.059 99.5145L167.462 73.5195C167.062 72.853 167.542 72.005 168.319 72.005H182.999H183C183.027 72.0049 185 71.9863 185 70C185 68 183 68 183 68H168.321C167.544 68 167.064 67.1511 167.465 66.4846L184.342 38.4264C184.731 37.7799 185.668 37.7804 186.056 38.4274L222.091 98.4855C222.491 99.152 222.011 100 221.234 100Z" fill="#008736"/>
</svg>
