<svg width="376" height="154" viewBox="0 0 376 154" fill="none" xmlns="http://www.w3.org/2000/svg">
<path d="M3 122V147H26.5M26.5 147V122M26.5 147H29.5V151.5" stroke="#333333" stroke-width="5" stroke-linecap="round" stroke-linejoin="round"/>
<path d="M347 122V148L373 122V148" stroke="#333333" stroke-width="5" stroke-linecap="round" stroke-linejoin="round"/>
<path d="M262.5 148V122H286V148" stroke="#333333" stroke-width="5" stroke-linecap="round" stroke-linejoin="round"/>
<path d="M176 122V148L201.5 122V148" stroke="#333333" stroke-width="5" stroke-linecap="round" stroke-linejoin="round"/>
<path d="M90.5 122V135M90.5 148V135M90.5 135H115M115 135V122M115 135V148" stroke="#333333" stroke-width="5" stroke-linecap="round" stroke-linejoin="round"/>
<path d="M72.5 52.5C72.5 52.5 72.5 39.499 60.5 39.499C48.5 39.499 27.9962 39.499 19.4981 39.499C11 39.499 5.50012 47.4999 5.50012 52.5C5.50012 61.0006 5.49985 65.5007 5.50012 72.0001C5.50045 79.5 11.002 86.5 19.5 86.5C27.998 86.5 48.5 86.5 60.5 86.5C72.5 86.5 72.5 73.5 72.5 73.5" stroke="#333333" stroke-width="10" stroke-linecap="round"/>
<path d="M205.797 33H176.205C175.428 33 174.948 33.8481 175.348 34.5146L190.142 59.1633C190.53 59.8104 191.468 59.8105 191.857 59.1634L206.654 34.5147C207.055 33.8482 206.575 33 205.797 33Z" fill="#E20338"/>
<path d="M136.911 90.1514L169.847 35.3436C170.236 34.6968 171.174 34.6971 171.562 35.344L186.854 60.8185C187.254 61.485 186.774 62.3332 185.997 62.3332H172.667H172.667C172.663 62.3332 170.833 62.3346 170.833 64.1665C170.833 66.0006 172.667 66.0006 172.667 66.0006H185.997C186.775 66.0006 187.255 66.8486 186.855 67.5151L172.654 91.1811C172.473 91.4822 172.147 91.6665 171.796 91.6665H137.768C136.99 91.6665 136.51 90.8179 136.911 90.1514Z" fill="#008736"/>
<path d="M177.549 90.1521L190.143 69.1701C190.532 68.5229 191.469 68.5229 191.858 69.17L204.453 90.152C204.853 90.8185 204.373 91.6667 203.596 91.6667H178.406C177.629 91.6667 177.149 90.8186 177.549 90.1521Z" fill="#0351C1"/>
<path d="M174.354 27.8184L190.206 1.42892C190.595 0.781732 191.534 0.782271 191.922 1.42991L207.732 27.8194C208.132 28.4859 207.651 29.3333 206.874 29.3333H175.212C174.434 29.3333 173.954 28.4849 174.354 27.8184Z" fill="#008736"/>
<path d="M244.234 91.6665H210.22C209.869 91.6665 209.543 91.4822 209.363 91.181L195.166 67.519C194.766 66.8524 195.246 66.0045 196.023 66.0045H209.332L209.334 66.0045C209.361 66.0043 211.167 65.9862 211.167 64.1665C211.167 62.3332 209.333 62.3332 209.333 62.3332H196.025C195.248 62.3332 194.767 61.4842 195.168 60.8177L210.492 35.3429C210.881 34.6964 211.818 34.6969 212.206 35.3439L245.091 90.152C245.491 90.8185 245.011 91.6665 244.234 91.6665Z" fill="#008736"/>
<path d="M86 45L80 35H168L162 45H128V91H116V45H86Z" fill="#333333" stroke="#333333" stroke-linecap="round" stroke-linejoin="round"/>
<path fill-rule="evenodd" clip-rule="evenodd" d="M214 35H292.5C300 35 307.5 40 307.5 54C307.5 68 300 73 293 73H260.5V91H248.5V45H220L214 35ZM259.5 45V63H289.5C293.5 63 297.5 60.0002 297.5 54C297.5 47.9998 293.5 45 289.5 45H259.5Z" fill="#333333"/>
<path d="M214 35V34.5C213.82 34.5 213.654 34.5969 213.565 34.7537C213.476 34.9104 213.479 35.1028 213.571 35.2572L214 35ZM260.5 73V72.5C260.224 72.5 260 72.7239 260 73H260.5ZM260.5 91V91.5C260.776 91.5 261 91.2761 261 91H260.5ZM248.5 91H248C248 91.2761 248.224 91.5 248.5 91.5V91ZM248.5 45H249C249 44.7239 248.776 44.5 248.5 44.5V45ZM220 45L219.571 45.2572C219.662 45.4079 219.824 45.5 220 45.5V45ZM259.5 63H259C259 63.2761 259.224 63.5 259.5 63.5V63ZM259.5 45V44.5C259.224 44.5 259 44.7239 259 45H259.5ZM260.5 45V44.5C260.224 44.5 260 44.7239 260 45H260.5ZM260.5 63H260C260 63.2761 260.224 63.5 260.5 63.5V63ZM292.5 34.5H214V35.5H292.5V34.5ZM308 54C308 46.9126 306.1 42.0261 303.177 38.908C300.253 35.7889 296.361 34.5 292.5 34.5V35.5C296.139 35.5 299.747 36.7111 302.448 39.592C305.15 42.4739 307 47.0874 307 54H308ZM293 73.5C296.619 73.5 300.386 72.2055 303.244 69.0879C306.1 65.9713 308 61.0877 308 54H307C307 60.9123 305.15 65.5287 302.506 68.4121C299.864 71.2945 296.381 72.5 293 72.5V73.5ZM260.5 73.5H293V72.5H260.5V73.5ZM261 91V73H260V91H261ZM248.5 91.5H260.5V90.5H248.5V91.5ZM248 45V91H249V45H248ZM220 45.5H248.5V44.5H220V45.5ZM213.571 35.2572L219.571 45.2572L220.429 44.7428L214.429 34.7428L213.571 35.2572ZM260 63V45H259V63H260ZM289.5 62.5H259.5V63.5H289.5V62.5ZM297 54C297 56.8837 296.042 59.0012 294.646 60.3965C293.246 61.7966 291.376 62.5 289.5 62.5V63.5C291.624 63.5 293.754 62.7035 295.354 61.1036C296.958 59.4991 298 57.1166 298 54H297ZM289.5 45.5C291.376 45.5 293.246 46.2034 294.646 47.6035C296.042 48.9988 297 51.1163 297 54H298C298 50.8834 296.958 48.5009 295.354 46.8964C293.754 45.2965 291.624 44.5 289.5 44.5V45.5ZM259.5 45.5H289.5V44.5H259.5V45.5ZM260 45V63H261V45H260ZM260.5 63.5H289.5V62.5H260.5V63.5ZM289.5 63.5C291.624 63.5 293.754 62.7035 295.354 61.1036C296.958 59.4991 298 57.1166 298 54H297C297 56.8837 296.042 59.0012 294.646 60.3965C293.246 61.7966 291.376 62.5 289.5 62.5V63.5ZM298 54C298 50.8834 296.958 48.5009 295.354 46.8964C293.754 45.2965 291.624 44.5 289.5 44.5V45.5C291.376 45.5 293.246 46.2034 294.646 47.6035C296.042 48.9988 297 51.1163 297 54H298ZM289.5 44.5H260.5V45.5H289.5V44.5Z" fill="#333333"/>
<path d="M327 35H315V91H327V68.5H332.5L360.5 91H374.5L341 63.5L374.5 35H360.5L332.5 58.5H327V35Z" fill="#333333" stroke="#333333" stroke-linecap="round" stroke-linejoin="round"/>
</svg>
